<svg width="975" height="447" viewBox="0 0 975 447" fill="none" xmlns="http://www.w3.org/2000/svg">
<g filter="url(#filter0_f_2_27560)">
<path d="M80.6064 76.0941L216.774 76.1365C266.395 76.152 294.518 104.303 294.534 153.973L294.576 290.145C294.592 339.815 266.486 367.949 216.865 367.933L80.6972 367.891C31.0758 367.876 3.08209 339.725 3.06662 290.054L3.02424 153.882C3.00878 104.212 30.9849 76.0787 80.6064 76.0941Z" fill="url(#paint0_linear_2_27560)"/>
</g>
<path d="M123.678 125.462C123.678 126.012 123.656 126.557 123.611 127.096V172.512C123.611 184.067 131.688 194.028 142.938 196.345L214.337 211.053C219.961 212.211 224 217.192 224 222.97V285.579C224 295.422 218.106 304.295 209.069 308.058L163.219 327.152C157.253 329.636 150.547 329.615 144.596 327.093L99.7929 308.109C90.8292 304.311 85 295.476 85 285.687V282.524L141.571 256.704C141.839 256.61 142.107 256.51 142.373 256.404C152.3 252.437 157.152 241.123 153.21 231.133C149.289 221.194 138.141 216.31 128.251 220.167L128.229 220.176L128.099 220.227C127.746 220.368 127.399 220.518 127.059 220.678L85 238.735V125.462C85 114.713 93.6586 106 104.339 106C115.02 106 123.678 114.713 123.678 125.462Z" fill="url(#paint1_linear_2_27560)"/>
<path d="M123.536 127.09L123.536 127.09V127.096V172.512C123.536 184.102 131.638 194.095 142.923 196.419L214.322 211.126C219.911 212.278 223.925 217.227 223.925 222.97V285.579C223.925 295.392 218.049 304.237 209.04 307.989L163.191 327.082C157.243 329.559 150.558 329.538 144.625 327.024L99.8222 308.04C90.8864 304.253 85.075 295.446 85.075 285.687V282.572L141.599 256.774C141.867 256.68 142.135 256.58 142.401 256.473C152.366 252.491 157.236 241.134 153.28 231.105C149.343 221.128 138.152 216.225 128.224 220.097L128.223 220.097L128.201 220.106L128.2 220.106L128.072 220.157L128.072 220.157C127.717 220.299 127.369 220.45 127.028 220.609C127.028 220.609 127.027 220.609 127.027 220.61L85.075 238.621V125.462C85.075 114.754 93.7004 106.075 104.339 106.075C114.978 106.075 123.603 114.754 123.603 125.462C123.603 126.01 123.581 126.553 123.536 127.09Z" stroke="url(#paint2_linear_2_27560)" stroke-opacity="0.5" stroke-width="0.15"/>
<mask id="mask0_2_27560" style="mask-type:alpha" maskUnits="userSpaceOnUse" x="85" y="107" width="139" height="223">
<path d="M123.601 127.188C123.601 127.734 123.579 128.274 123.534 128.808V173.846C123.534 185.306 131.595 195.184 142.822 197.482L214.08 212.067C219.693 213.216 223.723 218.156 223.723 223.885V285.974C223.723 295.735 217.842 304.534 208.822 308.267L163.064 327.201C157.109 329.665 150.417 329.644 144.477 327.143L99.7635 308.317C90.8176 304.55 85 295.788 85 286.082V282.945L141.459 257.339C141.726 257.246 141.993 257.147 142.259 257.041C152.166 253.108 157.008 241.888 153.075 231.98C149.161 222.124 138.035 217.281 128.165 221.105L128.143 221.114L128.014 221.165C127.661 221.305 127.315 221.454 126.975 221.612L85 239.519V127.188C85 116.529 93.6414 107.888 104.301 107.888C114.96 107.888 123.601 116.529 123.601 127.188Z" fill="url(#paint3_linear_2_27560)"/>
</mask>
<g mask="url(#mask0_2_27560)">
<path opacity="0.2" d="M141.843 263.534C141.557 263.647 141.27 263.753 140.982 263.852L94.5461 284.77C92.6481 285.625 91.0642 287.051 90.0154 288.849L80.1749 305.72V291.244V244.79L125.383 225.633C125.749 225.464 126.121 225.305 126.501 225.155L126.64 225.101L126.664 225.091C137.294 221 149.277 226.181 153.492 236.725C157.729 247.323 152.513 259.326 141.843 263.534Z" fill="black"/>
</g>
<g filter="url(#filter1_d_2_27560)">
<g filter="url(#filter2_f_2_27560)">
<path d="M277.366 76.0941L413.533 76.1365C463.155 76.152 491.278 104.303 491.293 153.973L491.336 290.145C491.351 339.815 463.246 367.949 413.624 367.933L277.457 367.891C227.835 367.876 199.842 339.725 199.826 290.054L199.784 153.882C199.768 104.212 227.744 76.0787 277.366 76.0941Z" fill="url(#paint4_linear_2_27560)"/>
</g>
<path d="M323.678 125.462C323.678 126.012 323.656 126.557 323.611 127.096V172.512C323.611 184.067 331.688 194.028 342.938 196.345L414.337 211.053C419.961 212.211 424 217.192 424 222.97V285.579C424 295.422 418.106 304.295 409.069 308.058L363.219 327.152C357.253 329.636 350.547 329.615 344.596 327.093L299.793 308.109C290.829 304.311 285 295.476 285 285.687V282.524L341.571 256.704C341.839 256.61 342.107 256.51 342.373 256.404C352.3 252.437 357.152 241.123 353.21 231.133C349.289 221.194 338.141 216.31 328.251 220.167L328.229 220.176L328.099 220.227C327.746 220.368 327.399 220.518 327.059 220.678L285 238.735V125.462C285 114.713 293.659 106 304.339 106C315.02 106 323.678 114.713 323.678 125.462Z" fill="url(#paint5_linear_2_27560)"/>
<path d="M323.536 127.09L323.536 127.09V127.096V172.512C323.536 184.102 331.638 194.095 342.923 196.419L414.322 211.126C419.911 212.278 423.925 217.227 423.925 222.97V285.579C423.925 295.392 418.049 304.237 409.04 307.989L363.191 327.082C357.243 329.559 350.558 329.538 344.625 327.024L299.822 308.04C290.886 304.253 285.075 295.446 285.075 285.687V282.572L341.599 256.774C341.867 256.68 342.135 256.58 342.401 256.473C352.366 252.491 357.236 241.134 353.28 231.105C349.343 221.128 338.152 216.225 328.224 220.097L328.223 220.097L328.201 220.106L328.2 220.106L328.072 220.157L328.072 220.157C327.717 220.299 327.369 220.45 327.028 220.609C327.028 220.609 327.027 220.609 327.027 220.61L285.075 238.621V125.462C285.075 114.754 293.7 106.075 304.339 106.075C314.978 106.075 323.603 114.754 323.603 125.462C323.603 126.01 323.581 126.553 323.536 127.09Z" stroke="url(#paint6_linear_2_27560)" stroke-opacity="0.5" stroke-width="0.15"/>
<mask id="mask1_2_27560" style="mask-type:alpha" maskUnits="userSpaceOnUse" x="285" y="107" width="139" height="223">
<path d="M323.601 127.188C323.601 127.734 323.579 128.274 323.534 128.808V173.846C323.534 185.306 331.595 195.184 342.822 197.482L414.08 212.067C419.693 213.216 423.723 218.156 423.723 223.885V285.974C423.723 295.735 417.842 304.534 408.822 308.267L363.064 327.201C357.109 329.665 350.417 329.644 344.477 327.143L299.764 308.317C290.818 304.55 285 295.788 285 286.082V282.945L341.459 257.339C341.726 257.246 341.993 257.147 342.259 257.041C352.166 253.108 357.008 241.888 353.075 231.98C349.161 222.124 338.035 217.281 328.165 221.105L328.143 221.114L328.014 221.165C327.661 221.305 327.315 221.454 326.975 221.612L285 239.519V127.188C285 116.529 293.641 107.888 304.301 107.888C314.96 107.888 323.601 116.529 323.601 127.188Z" fill="url(#paint7_linear_2_27560)"/>
</mask>
<g mask="url(#mask1_2_27560)">
<path opacity="0.2" d="M341.843 263.534C341.557 263.647 341.27 263.753 340.982 263.852L294.546 284.77C292.648 285.625 291.064 287.051 290.015 288.849L280.175 305.72V291.244V244.79L325.383 225.633C325.749 225.464 326.121 225.305 326.501 225.155L326.64 225.101L326.664 225.091C337.294 221 349.277 226.181 353.492 236.725C357.729 247.323 352.513 259.326 341.843 263.534Z" fill="black"/>
</g>
</g>
<g filter="url(#filter3_f_2_27560)">
<path d="M757.606 76.0941L893.774 76.1365C943.395 76.152 971.518 104.303 971.534 153.973L971.576 290.145C971.592 339.815 943.486 367.949 893.865 367.933L757.697 367.891C708.076 367.876 680.082 339.725 680.067 290.054L680.024 153.882C680.009 104.212 707.985 76.0787 757.606 76.0941Z" fill="url(#paint8_linear_2_27560)"/>
</g>
<path d="M810.678 125.462C810.678 126.012 810.656 126.557 810.611 127.096V172.512C810.611 184.067 818.688 194.028 829.938 196.345L901.337 211.053C906.961 212.211 911 217.192 911 222.97V285.579C911 295.422 905.106 304.295 896.069 308.058L850.219 327.152C844.253 329.636 837.547 329.615 831.596 327.093L786.793 308.109C777.829 304.311 772 295.476 772 285.687V282.524L828.571 256.704C828.839 256.61 829.107 256.51 829.373 256.404C839.3 252.437 844.152 241.123 840.21 231.133C836.289 221.194 825.141 216.31 815.251 220.167L815.229 220.176L815.099 220.227C814.746 220.368 814.399 220.518 814.059 220.678L772 238.735V125.462C772 114.713 780.659 106 791.339 106C802.02 106 810.678 114.713 810.678 125.462Z" fill="url(#paint9_linear_2_27560)"/>
<path d="M810.536 127.09L810.536 127.09V127.096V172.512C810.536 184.102 818.638 194.095 829.923 196.419L901.322 211.126C906.911 212.278 910.925 217.227 910.925 222.97V285.579C910.925 295.392 905.049 304.237 896.04 307.989L850.191 327.082C844.243 329.559 837.558 329.538 831.625 327.024L786.822 308.04C777.886 304.253 772.075 295.446 772.075 285.687V282.572L828.599 256.774C828.867 256.68 829.135 256.58 829.401 256.473C839.366 252.491 844.236 241.134 840.28 231.105C836.343 221.128 825.152 216.225 815.224 220.097L815.223 220.097L815.201 220.106L815.2 220.106L815.072 220.157L815.072 220.157C814.717 220.299 814.369 220.45 814.028 220.609C814.028 220.609 814.027 220.609 814.027 220.61L772.075 238.621V125.462C772.075 114.754 780.7 106.075 791.339 106.075C801.978 106.075 810.603 114.754 810.603 125.462C810.603 126.01 810.581 126.553 810.536 127.09Z" stroke="url(#paint10_linear_2_27560)" stroke-opacity="0.5" stroke-width="0.15"/>
<mask id="mask2_2_27560" style="mask-type:alpha" maskUnits="userSpaceOnUse" x="772" y="107" width="139" height="223">
<path d="M810.601 127.188C810.601 127.734 810.579 128.274 810.534 128.808V173.846C810.534 185.306 818.595 195.184 829.822 197.482L901.08 212.067C906.693 213.216 910.723 218.156 910.723 223.885V285.974C910.723 295.735 904.842 304.534 895.822 308.267L850.064 327.201C844.109 329.665 837.417 329.644 831.477 327.143L786.764 308.317C777.818 304.55 772 295.788 772 286.082V282.945L828.459 257.339C828.726 257.246 828.993 257.147 829.259 257.041C839.166 253.108 844.008 241.888 840.075 231.98C836.161 222.124 825.035 217.281 815.165 221.105L815.143 221.114L815.014 221.165C814.661 221.305 814.315 221.454 813.975 221.612L772 239.519V127.188C772 116.529 780.641 107.888 791.301 107.888C801.96 107.888 810.601 116.529 810.601 127.188Z" fill="url(#paint11_linear_2_27560)"/>
</mask>
<g mask="url(#mask2_2_27560)">
<path opacity="0.2" d="M828.843 263.534C828.557 263.647 828.27 263.753 827.982 263.852L781.546 284.77C779.648 285.625 778.064 287.051 777.015 288.849L767.175 305.72V291.244V244.79L812.383 225.633C812.749 225.464 813.121 225.305 813.501 225.155L813.64 225.101L813.664 225.091C824.294 221 836.277 226.181 840.492 236.725C844.729 247.323 839.513 259.326 828.843 263.534Z" fill="black"/>
</g>
<g filter="url(#filter4_dd_2_27560)">
<g filter="url(#filter5_f_2_27560)">
<path d="M446.649 15.0342L639.039 15.0941C709.149 15.116 748.884 54.8902 748.906 125.069L748.966 317.465C748.988 387.644 709.277 427.393 639.168 427.372L446.778 427.312C376.668 427.29 337.116 387.516 337.094 317.337L337.034 124.941C337.012 54.7619 376.54 15.0123 446.649 15.0342Z" fill="url(#paint12_linear_2_27560)"/>
</g>
<path d="M507.148 89.7063C507.148 90.461 507.117 91.2088 507.055 91.9476V154.267C507.055 170.123 518.154 183.792 533.612 186.972L631.722 207.153C639.451 208.743 645 215.577 645 223.505V309.418C645 322.924 636.902 335.1 624.483 340.264L561.481 366.464C553.283 369.873 544.068 369.844 535.89 366.384L474.327 340.334C462.01 335.121 454 322.998 454 309.566V305.226L531.735 269.796C532.103 269.667 532.47 269.53 532.836 269.384C546.477 263.941 553.144 248.415 547.728 234.707C542.339 221.069 527.021 214.367 513.431 219.659L513.4 219.672L513.223 219.742C512.737 219.935 512.261 220.142 511.793 220.36L454 245.139V89.7063C454 74.9566 465.898 63 480.574 63C495.25 63 507.148 74.9566 507.148 89.7063Z" fill="url(#paint13_linear_2_27560)"/>
<path d="M506.981 91.9413L506.98 91.9413V91.9476V154.267C506.98 170.159 518.104 183.859 533.597 187.045L631.707 207.226C639.4 208.809 644.925 215.613 644.925 223.505V309.418C644.925 322.894 636.845 335.042 624.454 340.195L561.452 366.394C553.273 369.796 544.079 369.767 535.92 366.315L474.356 340.264C462.067 335.064 454.075 322.968 454.075 309.566V305.274L531.763 269.865C532.131 269.737 532.498 269.6 532.864 269.453C546.543 263.995 553.229 248.426 547.798 234.679C542.394 221.003 527.032 214.282 513.404 219.589L513.403 219.59L513.373 219.602L513.372 219.602L513.195 219.672L513.195 219.672C512.708 219.866 512.231 220.073 511.763 220.292C511.762 220.292 511.762 220.292 511.761 220.292L454.075 245.025V89.7063C454.075 74.9977 465.94 63.075 480.574 63.075C495.208 63.075 507.073 74.9977 507.073 89.7063C507.073 90.4589 507.042 91.2046 506.981 91.9413Z" stroke="url(#paint14_linear_2_27560)" stroke-opacity="0.5" stroke-width="0.15"/>
<mask id="mask3_2_27560" style="mask-type:alpha" maskUnits="userSpaceOnUse" x="454" y="65" width="191" height="304">
<path d="M507.042 91.5931C507.042 92.3425 507.011 93.0851 506.95 93.8188V155.706C506.95 171.452 518.027 185.027 533.454 188.184L631.368 208.225C639.081 209.804 644.62 216.591 644.62 224.464V309.78C644.62 323.193 636.538 335.284 624.144 340.413L561.267 366.431C553.086 369.816 543.889 369.788 535.727 366.351L474.287 340.482C461.994 335.306 454 323.266 454 309.928V305.618L531.58 270.433C531.948 270.306 532.314 270.169 532.679 270.024C546.293 264.619 552.946 249.201 547.542 235.588C542.163 222.044 526.875 215.389 513.313 220.644L513.282 220.657L513.105 220.726C512.62 220.919 512.145 221.124 511.678 221.341L454 245.947V91.5931C454 76.9457 465.874 65.072 480.521 65.072C495.168 65.072 507.042 76.9457 507.042 91.5931Z" fill="url(#paint15_linear_2_27560)"/>
</mask>
<g mask="url(#mask3_2_27560)">
<path opacity="0.2" d="M532.108 278.945C531.715 279.101 531.32 279.247 530.925 279.383L466.026 308.618C464.128 309.473 462.544 310.899 461.495 312.697L447.37 336.913V317.022V253.189L509.49 226.866C509.993 226.634 510.505 226.415 511.027 226.209L511.218 226.134L511.251 226.121C525.858 220.499 542.323 227.618 548.115 242.107C553.936 256.67 546.77 273.163 532.108 278.945Z" fill="black"/>
</g>
</g>
<defs>
<filter id="filter0_f_2_27560" x="0.024231" y="73.0941" width="297.552" height="297.839" filterUnits="userSpaceOnUse" color-interpolation-filters="sRGB">
<feFlood flood-opacity="0" result="BackgroundImageFix"/>
<feBlend mode="normal" in="SourceGraphic" in2="BackgroundImageFix" result="shape"/>
<feGaussianBlur stdDeviation="1.5" result="effect1_foregroundBlur_2_27560"/>
</filter>
<filter id="filter1_d_2_27560" x="174.784" y="61.0941" width="321.552" height="321.839" filterUnits="userSpaceOnUse" color-interpolation-filters="sRGB">
<feFlood flood-opacity="0" result="BackgroundImageFix"/>
<feColorMatrix in="SourceAlpha" type="matrix" values="0 0 0 0 0 0 0 0 0 0 0 0 0 0 0 0 0 0 127 0" result="hardAlpha"/>
<feOffset dx="-10"/>
<feGaussianBlur stdDeviation="7.5"/>
<feComposite in2="hardAlpha" operator="out"/>
<feColorMatrix type="matrix" values="0 0 0 0 0 0 0 0 0 0 0 0 0 0 0 0 0 0 0.25 0"/>
<feBlend mode="normal" in2="BackgroundImageFix" result="effect1_dropShadow_2_27560"/>
<feBlend mode="normal" in="SourceGraphic" in2="effect1_dropShadow_2_27560" result="shape"/>
</filter>
<filter id="filter2_f_2_27560" x="196.784" y="73.0941" width="297.552" height="297.839" filterUnits="userSpaceOnUse" color-interpolation-filters="sRGB">
<feFlood flood-opacity="0" result="BackgroundImageFix"/>
<feBlend mode="normal" in="SourceGraphic" in2="BackgroundImageFix" result="shape"/>
<feGaussianBlur stdDeviation="1.5" result="effect1_foregroundBlur_2_27560"/>
</filter>
<filter id="filter3_f_2_27560" x="677.024" y="73.0941" width="297.552" height="297.839" filterUnits="userSpaceOnUse" color-interpolation-filters="sRGB">
<feFlood flood-opacity="0" result="BackgroundImageFix"/>
<feBlend mode="normal" in="SourceGraphic" in2="BackgroundImageFix" result="shape"/>
<feGaussianBlur stdDeviation="1.5" result="effect1_foregroundBlur_2_27560"/>
</filter>
<filter id="filter4_dd_2_27560" x="312.034" y="0.0341797" width="461.932" height="446.337" filterUnits="userSpaceOnUse" color-interpolation-filters="sRGB">
<feFlood flood-opacity="0" result="BackgroundImageFix"/>
<feColorMatrix in="SourceAlpha" type="matrix" values="0 0 0 0 0 0 0 0 0 0 0 0 0 0 0 0 0 0 127 0" result="hardAlpha"/>
<feOffset dx="-10"/>
<feGaussianBlur stdDeviation="7.5"/>
<feComposite in2="hardAlpha" operator="out"/>
<feColorMatrix type="matrix" values="0 0 0 0 0 0 0 0 0 0 0 0 0 0 0 0 0 0 0.25 0"/>
<feBlend mode="normal" in2="BackgroundImageFix" result="effect1_dropShadow_2_27560"/>
<feColorMatrix in="SourceAlpha" type="matrix" values="0 0 0 0 0 0 0 0 0 0 0 0 0 0 0 0 0 0 127 0" result="hardAlpha"/>
<feOffset dx="10" dy="4"/>
<feGaussianBlur stdDeviation="7.5"/>
<feComposite in2="hardAlpha" operator="out"/>
<feColorMatrix type="matrix" values="0 0 0 0 0 0 0 0 0 0 0 0 0 0 0 0 0 0 0.25 0"/>
<feBlend mode="normal" in2="effect1_dropShadow_2_27560" result="effect2_dropShadow_2_27560"/>
<feBlend mode="normal" in="SourceGraphic" in2="effect2_dropShadow_2_27560" result="shape"/>
</filter>
<filter id="filter5_f_2_27560" x="334.034" y="12.0342" width="417.932" height="418.337" filterUnits="userSpaceOnUse" color-interpolation-filters="sRGB">
<feFlood flood-opacity="0" result="BackgroundImageFix"/>
<feBlend mode="normal" in="SourceGraphic" in2="BackgroundImageFix" result="shape"/>
<feGaussianBlur stdDeviation="1.5" result="effect1_foregroundBlur_2_27560"/>
</filter>
<linearGradient id="paint0_linear_2_27560" x1="148.755" y1="76.1153" x2="148.664" y2="367.912" gradientUnits="userSpaceOnUse">
<stop stop-color="#F85A10"/>
<stop offset="1" stop-color="#CD31C8"/>
</linearGradient>
<linearGradient id="paint1_linear_2_27560" x1="154.5" y1="106" x2="154.5" y2="329" gradientUnits="userSpaceOnUse">
<stop stop-color="white"/>
<stop offset="1" stop-color="white" stop-opacity="0"/>
</linearGradient>
<linearGradient id="paint2_linear_2_27560" x1="154.5" y1="106" x2="154.5" y2="329" gradientUnits="userSpaceOnUse">
<stop stop-color="white"/>
<stop offset="1" stop-color="white" stop-opacity="0"/>
</linearGradient>
<linearGradient id="paint3_linear_2_27560" x1="154.362" y1="107.888" x2="154.362" y2="335.877" gradientUnits="userSpaceOnUse">
<stop stop-color="#50E3C2"/>
<stop offset="1" stop-color="#50E3C2" stop-opacity="0"/>
</linearGradient>
<linearGradient id="paint4_linear_2_27560" x1="345.514" y1="76.1153" x2="345.423" y2="367.912" gradientUnits="userSpaceOnUse">
<stop stop-color="#797877"/>
<stop offset="1" stop-color="#424242"/>
</linearGradient>
<linearGradient id="paint5_linear_2_27560" x1="354.5" y1="106" x2="354.5" y2="329" gradientUnits="userSpaceOnUse">
<stop stop-color="white"/>
<stop offset="1" stop-color="white" stop-opacity="0"/>
</linearGradient>
<linearGradient id="paint6_linear_2_27560" x1="354.5" y1="106" x2="354.5" y2="329" gradientUnits="userSpaceOnUse">
<stop stop-color="white"/>
<stop offset="1" stop-color="white" stop-opacity="0"/>
</linearGradient>
<linearGradient id="paint7_linear_2_27560" x1="354.362" y1="107.888" x2="354.362" y2="335.877" gradientUnits="userSpaceOnUse">
<stop stop-color="#50E3C2"/>
<stop offset="1" stop-color="#50E3C2" stop-opacity="0"/>
</linearGradient>
<linearGradient id="paint8_linear_2_27560" x1="825.755" y1="76.1153" x2="825.664" y2="367.912" gradientUnits="userSpaceOnUse">
<stop stop-color="#39DEBC"/>
<stop offset="1" stop-color="#546FF5"/>
</linearGradient>
<linearGradient id="paint9_linear_2_27560" x1="841.5" y1="106" x2="841.5" y2="329" gradientUnits="userSpaceOnUse">
<stop stop-color="white"/>
<stop offset="1" stop-color="white" stop-opacity="0"/>
</linearGradient>
<linearGradient id="paint10_linear_2_27560" x1="841.5" y1="106" x2="841.5" y2="329" gradientUnits="userSpaceOnUse">
<stop stop-color="white"/>
<stop offset="1" stop-color="white" stop-opacity="0"/>
</linearGradient>
<linearGradient id="paint11_linear_2_27560" x1="841.362" y1="107.888" x2="841.362" y2="335.877" gradientUnits="userSpaceOnUse">
<stop stop-color="#50E3C2"/>
<stop offset="1" stop-color="#50E3C2" stop-opacity="0"/>
</linearGradient>
<linearGradient id="paint12_linear_2_27560" x1="542.936" y1="15.0642" x2="542.807" y2="427.342" gradientUnits="userSpaceOnUse">
<stop stop-color="#9487D9"/>
<stop offset="1" stop-color="#5A6DD8"/>
</linearGradient>
<linearGradient id="paint13_linear_2_27560" x1="549.5" y1="63" x2="549.5" y2="369" gradientUnits="userSpaceOnUse">
<stop stop-color="white"/>
<stop offset="1" stop-color="white" stop-opacity="0"/>
</linearGradient>
<linearGradient id="paint14_linear_2_27560" x1="549.5" y1="63" x2="549.5" y2="369" gradientUnits="userSpaceOnUse">
<stop stop-color="white"/>
<stop offset="1" stop-color="white" stop-opacity="0"/>
</linearGradient>
<linearGradient id="paint15_linear_2_27560" x1="549.31" y1="65.072" x2="549.31" y2="378.352" gradientUnits="userSpaceOnUse">
<stop stop-color="#50E3C2"/>
<stop offset="1" stop-color="#50E3C2" stop-opacity="0"/>
</linearGradient>
</defs>
</svg>
