<svg width="1440" height="3287" viewBox="0 0 1440 3287" fill="none" xmlns="http://www.w3.org/2000/svg">
<path d="M1748.03 564.645L-72.7986 2.13656e-05L-118.498 716.396C-118.498 716.396 185.079 747.855 370.617 804.923C678.211 899.534 779.495 1134.12 1094.93 1197.88C1271.15 1233.5 1555 1213.93 1555 1213.93L1748.03 564.645Z" fill="url(#paint0_linear_2_27560)" fill-opacity="0.03"/>
<path d="M58.3815 2361.87C839.105 2473.34 1806.81 2361.87 1806.81 2361.87C1806.81 2361.87 2443.05 3426.91 1806.81 3271.12C1170.58 3115.32 541.629 3316.78 58.3815 3271.12C-424.866 3225.45 -722.342 2250.4 58.3815 2361.87Z" fill="url(#paint1_linear_2_27560)" fill-opacity="0.03"/>
<defs>
<linearGradient id="paint0_linear_2_27560" x1="375.202" y1="1410.5" x2="866.702" y2="-164.5" gradientUnits="userSpaceOnUse">
<stop stop-color="white"/>
<stop offset="0.633231" stop-color="white" stop-opacity="0"/>
</linearGradient>
<linearGradient id="paint1_linear_2_27560" x1="1579.94" y1="2353" x2="1579.94" y2="3291" gradientUnits="userSpaceOnUse">
<stop stop-color="white"/>
<stop offset="0.722941" stop-color="white" stop-opacity="0"/>
</linearGradient>
</defs>
</svg>
