<svg width="367" height="88" viewBox="0 0 367 88" fill="none" xmlns="http://www.w3.org/2000/svg">
<g filter="url(#filter0_d_235_1783)">
<path d="M0 6H46.2928C54.2824 6 60.7593 12.0305 60.7593 19.4694V32.2653C68.7489 32.2653 75.2258 38.2958 75.2258 45.7347V58.5306C75.2258 65.9695 68.7489 72 60.7593 72H33.9963L27.1247 58.5306H54.9727V45.7347H20.6148L13.7432 32.2653H41.5912V19.4694H6.87159L0 6Z" fill="url(#paint0_linear_235_1783)"/>
<path d="M109.805 19.0898C112.083 19.0898 114.294 19.2266 116.436 19.5C118.577 19.7734 120.583 20.1722 122.451 20.6963C124.32 21.1976 126.029 21.8128 127.578 22.542C129.128 23.2484 130.449 24.0573 131.543 24.9688C132.637 25.8802 133.491 26.8828 134.106 27.9766C134.722 29.0475 135.029 30.1868 135.029 31.3945V60.7207C135.029 61.9284 134.722 63.0791 134.106 64.1729C133.491 65.2438 132.637 66.235 131.543 67.1465C130.449 68.0579 129.128 68.8783 127.578 69.6074C126.029 70.3138 124.32 70.929 122.451 71.4531C120.583 71.9544 118.577 72.3418 116.436 72.6152C114.294 72.8887 112.083 73.0254 109.805 73.0254C107.526 73.0254 105.316 72.8887 103.174 72.6152C101.055 72.3418 99.0609 71.9544 97.1924 71.4531C95.3467 70.929 93.6491 70.3138 92.0996 69.6074C90.5501 68.8783 89.2171 68.0579 88.1006 67.1465C87.0068 66.235 86.1523 65.2438 85.5371 64.1729C84.9447 63.0791 84.6484 61.9284 84.6484 60.7207V31.3945C84.6484 30.1868 84.9447 29.0475 85.5371 27.9766C86.1523 26.8828 87.0068 25.8802 88.1006 24.9688C89.2171 24.0573 90.5501 23.2484 92.0996 22.542C93.6491 21.8128 95.3467 21.1976 97.1924 20.6963C99.0609 20.1722 101.055 19.7734 103.174 19.5C105.316 19.2266 107.526 19.0898 109.805 19.0898ZM126.074 33.9922C126.074 33.0124 125.698 32.0895 124.946 31.2236C124.194 30.335 123.112 29.5602 121.699 28.8994C120.309 28.2158 118.612 27.6803 116.606 27.293C114.601 26.8828 112.334 26.6777 109.805 26.6777C107.367 26.6777 105.156 26.8714 103.174 27.2588C101.191 27.6234 99.4824 28.1361 98.0469 28.7969C96.6341 29.4577 95.5404 30.2324 94.7656 31.1211C93.9909 32.0098 93.6035 32.9668 93.6035 33.9922V58.123C93.6035 59.1257 93.9909 60.0713 94.7656 60.96C95.5404 61.8486 96.6341 62.6234 98.0469 63.2842C99.4824 63.945 101.191 64.4691 103.174 64.8564C105.156 65.2438 107.367 65.4375 109.805 65.4375C112.334 65.4375 114.601 65.2438 116.606 64.8564C118.612 64.4463 120.309 63.8994 121.699 63.2158C123.112 62.5322 124.194 61.7575 124.946 60.8916C125.698 60.0029 126.074 59.0801 126.074 58.123V33.9922ZM166.953 38.4355L177.139 20.3203C179.098 20.4115 180.944 20.5482 182.676 20.7305C184.408 20.89 185.946 21.0609 187.29 21.2432C188.84 21.4482 190.286 21.6647 191.631 21.8926V30.5742C191.175 30.4147 190.56 30.2438 189.785 30.0615C189.033 29.8792 188.19 29.6969 187.256 29.5146C186.322 29.3096 185.342 29.1159 184.316 28.9336C183.291 28.7513 182.288 28.569 181.309 28.3867L171.26 46.2285L181.309 64.0703C182.288 63.9108 183.291 63.7399 184.316 63.5576C185.342 63.3525 186.322 63.1475 187.256 62.9424C188.19 62.7373 189.033 62.5436 189.785 62.3613C190.56 62.179 191.175 62.0195 191.631 61.8828V70.5645C190.286 70.7923 188.84 71.0088 187.29 71.2139C185.946 71.3962 184.408 71.5785 182.676 71.7607C180.944 71.9202 179.098 72.0456 177.139 72.1367L166.953 54.0215L156.699 72.1367C154.74 72.0456 152.882 71.9202 151.128 71.7607C149.396 71.5785 147.869 71.3962 146.548 71.2139C144.998 71.0088 143.574 70.7923 142.275 70.5645V61.8828C142.686 62.0195 143.267 62.179 144.019 62.3613C144.771 62.5436 145.614 62.7373 146.548 62.9424C147.482 63.1475 148.462 63.3525 149.487 63.5576C150.535 63.7399 151.549 63.9108 152.529 64.0703L162.51 46.2285L152.529 28.3867C151.549 28.569 150.535 28.7513 149.487 28.9336C148.462 29.1159 147.482 29.3096 146.548 29.5146C145.614 29.6969 144.771 29.8792 144.019 30.0615C143.267 30.2438 142.686 30.4147 142.275 30.5742V21.8926C143.574 21.6647 144.998 21.4482 146.548 21.2432C147.869 21.0609 149.396 20.89 151.128 20.7305C152.882 20.5482 154.74 20.4115 156.699 20.3203L166.953 38.4355ZM223.896 18.6113C225.309 18.6113 226.745 18.7594 228.203 19.0557C229.661 19.3291 230.96 19.7051 232.1 20.1836C234.105 23.6927 235.928 27.2702 237.568 30.916C239.232 34.5391 240.713 38.276 242.012 42.127C242.9 42.2409 243.8 42.3662 244.712 42.5029C245.623 42.6169 246.546 42.7422 247.48 42.8789V51.6289L244.541 50.8086C245.361 54.2038 246.056 57.6673 246.626 61.1992C247.196 64.7311 247.617 68.3314 247.891 72H239.756C239.414 68.0807 238.844 64.207 238.047 60.3789C237.249 56.5508 236.338 52.8822 235.312 49.373C233.102 49.1908 230.994 49.054 228.989 48.9629C227.007 48.8717 225.309 48.8262 223.896 48.8262C222.005 48.8262 220.125 48.8604 218.257 48.9287C216.388 48.9971 214.508 49.1224 212.617 49.3047C211.592 52.8138 210.669 56.4824 209.849 60.3105C209.051 64.1387 208.493 68.0352 208.174 72H200.039C200.29 68.3314 200.688 64.7425 201.235 61.2334C201.805 57.7243 202.5 54.2721 203.32 50.877L200.654 51.6289V42.8789L205.918 42.127C207.194 38.276 208.652 34.5391 210.293 30.916C211.956 27.2702 213.802 23.6927 215.83 20.1836C216.969 19.7051 218.257 19.3291 219.692 19.0557C221.128 18.7594 222.529 18.6113 223.896 18.6113ZM223.896 41.1016C225.264 41.1016 226.676 41.1243 228.135 41.1699C229.593 41.1927 231.097 41.2611 232.646 41.375C231.484 38.2077 230.334 35.4619 229.194 33.1377C228.078 30.7907 227.109 28.9792 226.289 27.7031C225.879 27.5208 225.492 27.3955 225.127 27.3271C224.762 27.2588 224.352 27.2246 223.896 27.2246C223.167 27.2246 222.415 27.3841 221.641 27.7031C220.82 28.9792 219.84 30.7907 218.701 33.1377C217.562 35.4619 216.423 38.2077 215.283 41.375C216.787 41.2611 218.257 41.1927 219.692 41.1699C221.151 41.1243 222.552 41.1016 223.896 41.1016Z" fill="url(#paint1_linear_235_1783)"/>
</g>
<defs>
<filter id="filter0_d_235_1783" x="0" y="0" width="267.891" height="87.0254" filterUnits="userSpaceOnUse" color-interpolation-filters="sRGB">
<feFlood flood-opacity="0" result="BackgroundImageFix"/>
<feColorMatrix in="SourceAlpha" type="matrix" values="0 0 0 0 0 0 0 0 0 0 0 0 0 0 0 0 0 0 127 0" result="hardAlpha"/>
<feOffset dx="10" dy="4"/>
<feGaussianBlur stdDeviation="5"/>
<feComposite in2="hardAlpha" operator="out"/>
<feColorMatrix type="matrix" values="0 0 0 0 0 0 0 0 0 0 0 0 0 0 0 0 0 0 0.25 0"/>
<feBlend mode="normal" in2="BackgroundImageFix" result="effect1_dropShadow_235_1783"/>
<feBlend mode="normal" in="SourceGraphic" in2="effect1_dropShadow_235_1783" result="shape"/>
</filter>
<linearGradient id="paint0_linear_235_1783" x1="73.5983" y1="72" x2="4.11817" y2="-0.816775" gradientUnits="userSpaceOnUse">
<stop stop-color="#C4F0DE"/>
<stop offset="0.322917" stop-color="#12976D"/>
<stop offset="0.755208" stop-color="#3AC7A3"/>
<stop offset="1" stop-color="#50E3C2"/>
</linearGradient>
<linearGradient id="paint1_linear_235_1783" x1="168.5" y1="16.5" x2="168.5" y2="76" gradientUnits="userSpaceOnUse">
<stop stop-color="#50E3C2"/>
<stop offset="1" stop-color="#34AC7A"/>
</linearGradient>
</defs>
</svg>
