<svg width="100" height="44" viewBox="0 0 100 44" fill="none" xmlns="http://www.w3.org/2000/svg">
<path d="M7.5793 3.84012C7.5793 3.94864 7.5749 4.05616 7.56611 4.16239V13.1234C7.56611 15.4034 9.14891 17.3688 11.3533 17.826L25.3445 20.7279C26.4467 20.9565 27.2381 21.9392 27.2381 23.0792V35.4326C27.2381 37.3747 26.0832 39.1254 24.3122 39.868L15.3277 43.6353C14.1586 44.1255 12.8444 44.1214 11.6782 43.6238L2.89879 39.878C1.14228 39.1285 0 37.3853 0 35.454V34.8299L11.0856 29.7353C11.1381 29.7169 11.1905 29.6971 11.2427 29.6761C13.1879 28.8934 14.1387 26.661 13.3664 24.6899C12.5979 22.7288 10.4133 21.7651 8.47536 22.5261L8.47096 22.5279L8.44564 22.538C8.37636 22.5659 8.30847 22.5956 8.24174 22.627L0 26.1899V3.84012C0 1.71925 1.69671 0 3.78965 0C5.88258 0 7.5793 1.71925 7.5793 3.84012Z" fill="white"/>
<path d="M41.8229 20.1519C42.7778 20.1519 43.704 20.2092 44.6016 20.3238C45.4991 20.4384 46.3394 20.6055 47.1224 20.8251C47.9054 21.0352 48.6215 21.293 49.2708 21.5986C49.9201 21.8946 50.474 22.2335 50.9323 22.6155C51.3906 22.9974 51.7487 23.4176 52.0065 23.8759C52.2643 24.3247 52.3932 24.8021 52.3932 25.3082V37.5972C52.3932 38.1033 52.2643 38.5855 52.0065 39.0439C51.7487 39.4926 51.3906 39.908 50.9323 40.29C50.474 40.6719 49.9201 41.0157 49.2708 41.3212C48.6215 41.6172 47.9054 41.875 47.1224 42.0946C46.3394 42.3047 45.4991 42.467 44.6016 42.5816C43.704 42.6962 42.7778 42.7535 41.8229 42.7535C40.8681 42.7535 39.9418 42.6962 39.0443 42.5816C38.1562 42.467 37.3207 42.3047 36.5378 42.0946C35.7643 41.875 35.053 41.6172 34.4036 41.3212C33.7543 41.0157 33.1957 40.6719 32.7279 40.29C32.2695 39.908 31.9115 39.4926 31.6536 39.0439C31.4054 38.5855 31.2812 38.1033 31.2812 37.5972V25.3082C31.2812 24.8021 31.4054 24.3247 31.6536 23.8759C31.9115 23.4176 32.2695 22.9974 32.7279 22.6155C33.1957 22.2335 33.7543 21.8946 34.4036 21.5986C35.053 21.293 35.7643 21.0352 36.5378 20.8251C37.3207 20.6055 38.1562 20.4384 39.0443 20.3238C39.9418 20.2092 40.8681 20.1519 41.8229 20.1519ZM48.6406 26.3967C48.6406 25.9861 48.4831 25.5994 48.168 25.2366C47.8529 24.8642 47.3993 24.5395 46.8073 24.2626C46.2248 23.9762 45.5135 23.7518 44.6732 23.5894C43.8329 23.4176 42.8828 23.3316 41.8229 23.3316C40.8012 23.3316 39.875 23.4128 39.0443 23.5751C38.2135 23.7279 37.4974 23.9427 36.8958 24.2196C36.3038 24.4966 35.8455 24.8212 35.5208 25.1936C35.1962 25.566 35.0339 25.967 35.0339 26.3967V36.5087C35.0339 36.9288 35.1962 37.3251 35.5208 37.6975C35.8455 38.0699 36.3038 38.3946 36.8958 38.6715C37.4974 38.9484 38.2135 39.168 39.0443 39.3303C39.875 39.4926 40.8012 39.5738 41.8229 39.5738C42.8828 39.5738 43.8329 39.4926 44.6732 39.3303C45.5135 39.1584 46.2248 38.9293 46.8073 38.6428C47.3993 38.3564 47.8529 38.0317 48.168 37.6689C48.4831 37.2965 48.6406 36.9097 48.6406 36.5087V26.3967Z" fill="white"/>
<path d="M65.7708 28.2587L70.0391 20.6676C70.8602 20.7058 71.6337 20.763 72.3594 20.8394C73.0851 20.9063 73.7296 20.9779 74.293 21.0543C74.9423 21.1402 75.5486 21.2309 76.112 21.3264V24.9644C75.921 24.8976 75.6632 24.826 75.3385 24.7496C75.0234 24.6732 74.6701 24.5968 74.2786 24.5204C73.8872 24.4345 73.4766 24.3533 73.0469 24.2769C72.6172 24.2005 72.197 24.1242 71.7865 24.0478L67.5755 31.5243L71.7865 39.0009C72.197 38.9341 72.6172 38.8624 73.0469 38.7861C73.4766 38.7001 73.8872 38.6142 74.2786 38.5282C74.6701 38.4423 75.0234 38.3611 75.3385 38.2847C75.6632 38.2084 75.921 38.1415 76.112 38.0842V41.7222C75.5486 41.8177 74.9423 41.9084 74.293 41.9944C73.7296 42.0708 73.0851 42.1472 72.3594 42.2236C71.6337 42.2904 70.8602 42.3429 70.0391 42.3811L65.7708 34.79L61.474 42.3811C60.6528 42.3429 59.8746 42.2904 59.1393 42.2236C58.4136 42.1472 57.7739 42.0708 57.2201 41.9944C56.5707 41.9084 55.974 41.8177 55.4297 41.7222V38.0842C55.6016 38.1415 55.8451 38.2084 56.1602 38.2847C56.4753 38.3611 56.8286 38.4423 57.2201 38.5282C57.6115 38.6142 58.0221 38.7001 58.4518 38.7861C58.8911 38.8624 59.316 38.9341 59.7266 39.0009L63.9089 31.5243L59.7266 24.0478C59.316 24.1242 58.8911 24.2005 58.4518 24.2769C58.0221 24.3533 57.6115 24.4345 57.2201 24.5204C56.8286 24.5968 56.4753 24.6732 56.1602 24.7496C55.8451 24.826 55.6016 24.8976 55.4297 24.9644V21.3264C55.974 21.2309 56.5707 21.1402 57.2201 21.0543C57.7739 20.9779 58.4136 20.9063 59.1393 20.8394C59.8746 20.763 60.6528 20.7058 61.474 20.6676L65.7708 28.2587Z" fill="white"/>
<path d="M89.6328 19.9514C90.2248 19.9514 90.8264 20.0135 91.4375 20.1376C92.0486 20.2522 92.5929 20.4097 93.0703 20.6103C93.9106 22.0808 94.6745 23.5799 95.362 25.1077C96.059 26.6259 96.6797 28.1919 97.224 29.8056C97.5964 29.8533 97.9735 29.9058 98.3555 29.9631C98.7374 30.0109 99.1241 30.0634 99.5156 30.1207V33.7874L98.2839 33.4436C98.6276 34.8663 98.9188 36.3177 99.1576 37.7978C99.3963 39.2778 99.5729 40.7865 99.6875 42.3238H96.2786C96.1354 40.6814 95.8967 39.0582 95.5625 37.454C95.2283 35.8499 94.8464 34.3125 94.4167 32.842C93.4905 32.7657 92.6072 32.7084 91.7669 32.6702C90.9362 32.632 90.2248 32.6129 89.6328 32.6129C88.8403 32.6129 88.0525 32.6272 87.2695 32.6558C86.4865 32.6845 85.6988 32.737 84.9062 32.8134C84.4766 34.2839 84.0898 35.8212 83.7461 37.4254C83.4119 39.0295 83.178 40.6624 83.0443 42.3238H79.6354C79.7405 40.7865 79.9076 39.2826 80.1367 37.8121C80.3754 36.3416 80.6667 34.895 81.0104 33.4722L79.8932 33.7874V30.1207L82.099 29.8056C82.6337 28.1919 83.2448 26.6259 83.9323 25.1077C84.6293 23.5799 85.4028 22.0808 86.2526 20.6103C86.73 20.4097 87.2695 20.2522 87.8711 20.1376C88.4727 20.0135 89.0599 19.9514 89.6328 19.9514ZM89.6328 29.3759C90.2057 29.3759 90.7977 29.3854 91.4089 29.4045C92.02 29.4141 92.6502 29.4427 93.2995 29.4905C92.8125 28.1632 92.3303 27.0126 91.8529 26.0387C91.385 25.0551 90.9792 24.296 90.6354 23.7613C90.4635 23.6849 90.3012 23.6324 90.1484 23.6038C89.9957 23.5751 89.8238 23.5608 89.6328 23.5608C89.3273 23.5608 89.0122 23.6276 88.6875 23.7613C88.3438 24.296 87.9332 25.0551 87.4557 26.0387C86.9783 27.0126 86.5009 28.1632 86.0234 29.4905C86.6536 29.4427 87.2695 29.4141 87.8711 29.4045C88.4822 29.3854 89.0694 29.3759 89.6328 29.3759Z" fill="white"/>
<mask id="mask0_12_329" style="mask-type:alpha" maskUnits="userSpaceOnUse" x="0" y="0" width="28" height="44">
<path d="M7.61081 4.10277C7.61081 4.21031 7.6064 4.31686 7.59757 4.42213V13.3021C7.59757 15.5615 9.18695 17.5092 11.4005 17.9622L25.4499 20.8379C26.5567 21.0645 27.3514 22.0383 27.3514 23.1679V35.4097C27.3514 37.3342 26.1917 39.0691 24.4133 39.805L15.3914 43.5382C14.2174 44.024 12.8978 44.0199 11.7268 43.5268L2.91084 39.8149C1.14703 39.0722 0 37.3447 0 35.4309V34.8124L11.1317 29.7639C11.1844 29.7456 11.237 29.726 11.2894 29.7052C13.2427 28.9296 14.1975 26.7174 13.4219 24.7641C12.6502 22.8207 10.4566 21.8658 8.5106 22.6199L8.50619 22.6217L8.48075 22.6316C8.41119 22.6592 8.34302 22.6887 8.27601 22.7198L0 26.2505V4.10277C0 2.00107 1.70377 0.297363 3.80541 0.297363C5.90704 0.297363 7.61081 2.00107 7.61081 4.10277Z" fill="url(#paint0_linear_12_329)"/>
</mask>
<g mask="url(#mask0_12_329)">
<path opacity="0.2" d="M11.2075 30.9851C11.1511 31.0074 11.0944 31.0283 11.0377 31.0479L4.2249 34.1168C2.32693 34.9718 0.743078 36.3978 -0.305772 38.1959L-0.951324 39.3026V36.4486V27.2894L7.96205 23.5124C8.03422 23.4791 8.10764 23.4476 8.18256 23.4181L8.20995 23.4074L8.21471 23.4055C10.3106 22.5988 12.6731 23.6204 13.5043 25.6993C14.3395 27.7889 13.3113 30.1554 11.2075 30.9851Z" fill="black"/>
</g>
<defs>
<linearGradient id="paint0_linear_12_329" x1="13.6757" y1="0.297363" x2="13.6757" y2="45.2487" gradientUnits="userSpaceOnUse">
<stop stop-color="#50E3C2"/>
<stop offset="1" stop-color="#50E3C2" stop-opacity="0"/>
</linearGradient>
</defs>
</svg>
