<svg width="356" height="125" viewBox="0 0 356 125" fill="none" xmlns="http://www.w3.org/2000/svg">
<g filter="url(#filter0_d_12_379)">
<path d="M18.087 15.1639C18.087 15.4229 18.0765 15.6795 18.0555 15.933V37.3171C18.0555 42.758 21.8326 47.4484 27.0932 48.5393L60.4813 55.4643C63.1114 56.0099 65 58.355 65 61.0754V90.5551C65 95.1896 62.244 99.3675 58.0179 101.14L36.5774 110.13C33.7875 111.299 30.6515 111.29 27.8684 110.102L6.91757 101.163C2.7259 99.3749 0 95.215 0 90.6061V89.1168L26.4543 76.9593C26.5796 76.9152 26.7046 76.8681 26.8291 76.8179C31.4711 74.9502 33.74 69.6229 31.897 64.919C30.0631 60.2392 24.85 57.9396 20.2253 59.7555L20.2148 59.7599L20.1544 59.7839C19.989 59.8503 19.827 59.9212 19.6678 59.9962L0 68.4986V15.1639C0 10.1028 4.04898 6 9.04348 6C14.038 6 18.087 10.1028 18.087 15.1639Z" fill="url(#paint0_linear_12_379)"/>
<path d="M98.8047 52.0898C101.083 52.0898 103.294 52.2266 105.436 52.5C107.577 52.7734 109.583 53.1722 111.451 53.6963C113.32 54.1976 115.029 54.8128 116.578 55.542C118.128 56.2484 119.449 57.0573 120.543 57.9688C121.637 58.8802 122.491 59.8828 123.106 60.9766C123.722 62.0475 124.029 63.1868 124.029 64.3945V93.7207C124.029 94.9284 123.722 96.0791 123.106 97.1729C122.491 98.2438 121.637 99.235 120.543 100.146C119.449 101.058 118.128 101.878 116.578 102.607C115.029 103.314 113.32 103.929 111.451 104.453C109.583 104.954 107.577 105.342 105.436 105.615C103.294 105.889 101.083 106.025 98.8047 106.025C96.526 106.025 94.3158 105.889 92.1738 105.615C90.0547 105.342 88.0609 104.954 86.1924 104.453C84.3467 103.929 82.6491 103.314 81.0996 102.607C79.5501 101.878 78.2171 101.058 77.1006 100.146C76.0068 99.235 75.1523 98.2438 74.5371 97.1729C73.9447 96.0791 73.6484 94.9284 73.6484 93.7207V64.3945C73.6484 63.1868 73.9447 62.0475 74.5371 60.9766C75.1523 59.8828 76.0068 58.8802 77.1006 57.9688C78.2171 57.0573 79.5501 56.2484 81.0996 55.542C82.6491 54.8128 84.3467 54.1976 86.1924 53.6963C88.0609 53.1722 90.0547 52.7734 92.1738 52.5C94.3158 52.2266 96.526 52.0898 98.8047 52.0898ZM115.074 66.9922C115.074 66.0124 114.698 65.0895 113.946 64.2236C113.194 63.335 112.112 62.5602 110.699 61.8994C109.309 61.2158 107.612 60.6803 105.606 60.293C103.601 59.8828 101.334 59.6777 98.8047 59.6777C96.3665 59.6777 94.1562 59.8714 92.1738 60.2588C90.1914 60.6234 88.4824 61.1361 87.0469 61.7969C85.6341 62.4577 84.5404 63.2324 83.7656 64.1211C82.9909 65.0098 82.6035 65.9668 82.6035 66.9922V91.123C82.6035 92.1257 82.9909 93.0713 83.7656 93.96C84.5404 94.8486 85.6341 95.6234 87.0469 96.2842C88.4824 96.945 90.1914 97.4691 92.1738 97.8564C94.1562 98.2438 96.3665 98.4375 98.8047 98.4375C101.334 98.4375 103.601 98.2438 105.606 97.8564C107.612 97.4463 109.309 96.8994 110.699 96.2158C112.112 95.5322 113.194 94.7575 113.946 93.8916C114.698 93.0029 115.074 92.0801 115.074 91.123V66.9922ZM155.953 71.4355L166.139 53.3203C168.098 53.4115 169.944 53.5482 171.676 53.7305C173.408 53.89 174.946 54.0609 176.29 54.2432C177.84 54.4482 179.286 54.6647 180.631 54.8926V63.5742C180.175 63.4147 179.56 63.2438 178.785 63.0615C178.033 62.8792 177.19 62.6969 176.256 62.5146C175.322 62.3096 174.342 62.1159 173.316 61.9336C172.291 61.7513 171.288 61.569 170.309 61.3867L160.26 79.2285L170.309 97.0703C171.288 96.9108 172.291 96.7399 173.316 96.5576C174.342 96.3525 175.322 96.1475 176.256 95.9424C177.19 95.7373 178.033 95.5436 178.785 95.3613C179.56 95.179 180.175 95.0195 180.631 94.8828V103.564C179.286 103.792 177.84 104.009 176.29 104.214C174.946 104.396 173.408 104.578 171.676 104.761C169.944 104.92 168.098 105.046 166.139 105.137L155.953 87.0215L145.699 105.137C143.74 105.046 141.882 104.92 140.128 104.761C138.396 104.578 136.869 104.396 135.548 104.214C133.998 104.009 132.574 103.792 131.275 103.564V94.8828C131.686 95.0195 132.267 95.179 133.019 95.3613C133.771 95.5436 134.614 95.7373 135.548 95.9424C136.482 96.1475 137.462 96.3525 138.487 96.5576C139.535 96.7399 140.549 96.9108 141.529 97.0703L151.51 79.2285L141.529 61.3867C140.549 61.569 139.535 61.7513 138.487 61.9336C137.462 62.1159 136.482 62.3096 135.548 62.5146C134.614 62.6969 133.771 62.8792 133.019 63.0615C132.267 63.2438 131.686 63.4147 131.275 63.5742V54.8926C132.574 54.6647 133.998 54.4482 135.548 54.2432C136.869 54.0609 138.396 53.89 140.128 53.7305C141.882 53.5482 143.74 53.4115 145.699 53.3203L155.953 71.4355ZM212.896 51.6113C214.309 51.6113 215.745 51.7594 217.203 52.0557C218.661 52.3291 219.96 52.7051 221.1 53.1836C223.105 56.6927 224.928 60.2702 226.568 63.916C228.232 67.5391 229.713 71.276 231.012 75.127C231.9 75.2409 232.8 75.3662 233.712 75.5029C234.623 75.6169 235.546 75.7422 236.48 75.8789V84.6289L233.541 83.8086C234.361 87.2038 235.056 90.6673 235.626 94.1992C236.196 97.7311 236.617 101.331 236.891 105H228.756C228.414 101.081 227.844 97.207 227.047 93.3789C226.249 89.5508 225.338 85.8822 224.312 82.373C222.102 82.1908 219.994 82.054 217.989 81.9629C216.007 81.8717 214.309 81.8262 212.896 81.8262C211.005 81.8262 209.125 81.8604 207.257 81.9287C205.388 81.9971 203.508 82.1224 201.617 82.3047C200.592 85.8138 199.669 89.4824 198.849 93.3105C198.051 97.1387 197.493 101.035 197.174 105H189.039C189.29 101.331 189.688 97.7425 190.235 94.2334C190.805 90.7243 191.5 87.2721 192.32 83.877L189.654 84.6289V75.8789L194.918 75.127C196.194 71.276 197.652 67.5391 199.293 63.916C200.956 60.2702 202.802 56.6927 204.83 53.1836C205.969 52.7051 207.257 52.3291 208.692 52.0557C210.128 51.7594 211.529 51.6113 212.896 51.6113ZM212.896 74.1016C214.264 74.1016 215.676 74.1243 217.135 74.1699C218.593 74.1927 220.097 74.2611 221.646 74.375C220.484 71.2077 219.334 68.4619 218.194 66.1377C217.078 63.7907 216.109 61.9792 215.289 60.7031C214.879 60.5208 214.492 60.3955 214.127 60.3271C213.762 60.2588 213.352 60.2246 212.896 60.2246C212.167 60.2246 211.415 60.3841 210.641 60.7031C209.82 61.9792 208.84 63.7907 207.701 66.1377C206.562 68.4619 205.423 71.2077 204.283 74.375C205.787 74.2611 207.257 74.1927 208.692 74.1699C210.151 74.1243 211.552 74.1016 212.896 74.1016Z" fill="url(#paint1_linear_12_379)"/>
<mask id="mask0_12_379" style="mask-type:alpha" maskUnits="userSpaceOnUse" x="0" y="6" width="66" height="105">
<path d="M18.1622 15.7906C18.1622 16.0472 18.1516 16.3014 18.1306 16.5527V37.7435C18.1306 43.1352 21.9234 47.7832 27.2058 48.8643L60.7328 55.7266C63.3739 56.2673 65.2703 58.5912 65.2703 61.287V90.5002C65.2703 95.0929 62.5028 99.233 58.2591 100.989L36.7295 109.898C33.928 111.057 30.7789 111.047 27.9843 109.871L6.94633 101.013C2.73724 99.2403 0 95.118 0 90.5508V89.075L26.5643 77.0273C26.6901 76.9837 26.8156 76.937 26.9406 76.8872C31.602 75.0364 33.8803 69.7573 32.0296 65.0959C30.1881 60.4584 24.9533 58.1795 20.3094 59.9791L20.2989 59.9834L20.2382 60.0072C20.0722 60.073 19.9095 60.1433 19.7496 60.2175L0 68.6431V15.7906C0 10.7751 4.06581 6.70947 9.08108 6.70947C14.0964 6.70947 18.1622 10.7751 18.1622 15.7906Z" fill="url(#paint2_linear_12_379)"/>
</mask>
<g mask="url(#mask0_12_379)">
<path opacity="0.2" d="M26.7452 79.9419C26.6106 79.9952 26.4753 80.0451 26.3398 80.0918L6.03659 89.2378C4.13861 90.0928 2.55477 91.5188 1.50592 93.3169L-2.27023 99.7906V92.9798V71.1227L19.0003 62.1095C19.1725 62.03 19.3478 61.9549 19.5265 61.8845L19.5919 61.859L19.6032 61.8544C24.6048 59.9293 30.2427 62.3671 32.2261 67.3281C34.2193 72.3147 31.7655 77.962 26.7452 79.9419Z" fill="black"/>
</g>
</g>
<defs>
<filter id="filter0_d_12_379" x="0" y="0" width="256.891" height="125" filterUnits="userSpaceOnUse" color-interpolation-filters="sRGB">
<feFlood flood-opacity="0" result="BackgroundImageFix"/>
<feColorMatrix in="SourceAlpha" type="matrix" values="0 0 0 0 0 0 0 0 0 0 0 0 0 0 0 0 0 0 127 0" result="hardAlpha"/>
<feOffset dx="10" dy="4"/>
<feGaussianBlur stdDeviation="5"/>
<feComposite in2="hardAlpha" operator="out"/>
<feColorMatrix type="matrix" values="0 0 0 0 0 0 0 0 0 0 0 0 0 0 0 0 0 0 0.25 0"/>
<feBlend mode="normal" in2="BackgroundImageFix" result="effect1_dropShadow_12_379"/>
<feBlend mode="normal" in="SourceGraphic" in2="effect1_dropShadow_12_379" result="shape"/>
</filter>
<linearGradient id="paint0_linear_12_379" x1="32.5" y1="6" x2="32.5" y2="114.249" gradientUnits="userSpaceOnUse">
<stop stop-color="#50E3C2"/>
<stop offset="1" stop-color="#34AC7A"/>
</linearGradient>
<linearGradient id="paint1_linear_12_379" x1="157.5" y1="49.5" x2="157.5" y2="109" gradientUnits="userSpaceOnUse">
<stop stop-color="#50E3C2"/>
<stop offset="1" stop-color="#34AC7A"/>
</linearGradient>
<linearGradient id="paint2_linear_12_379" x1="32.6351" y1="6.70947" x2="32.6351" y2="113.98" gradientUnits="userSpaceOnUse">
<stop stop-color="#50E3C2"/>
<stop offset="1" stop-color="#50E3C2" stop-opacity="0"/>
</linearGradient>
</defs>
</svg>
