<svg width="20" height="20" viewBox="0 0 20 20" fill="none" xmlns="http://www.w3.org/2000/svg">
<path d="M12.5 12.5H16.6667C17.1269 12.5 17.5 12.1269 17.5 11.6667V3.33333C17.5 2.8731 17.1269 2.5 16.6667 2.5L8.33333 2.5C7.8731 2.5 7.5 2.8731 7.5 3.33333L7.5 7.5" stroke="#8B8B8B" stroke-linecap="round" stroke-linejoin="round"/>
<path d="M3.33333 17.5L11.6667 17.5C12.1269 17.5 12.5 17.1269 12.5 16.6667L12.5 8.33333C12.5 7.8731 12.1269 7.5 11.6667 7.5L3.33333 7.5C2.8731 7.5 2.5 7.8731 2.5 8.33333L2.5 16.6667C2.5 17.1269 2.8731 17.5 3.33333 17.5Z" stroke="#8B8B8B" stroke-linecap="round" stroke-linejoin="round"/>
</svg>
