<svg width="16" height="17" viewBox="0 0 16 17" fill="none" xmlns="http://www.w3.org/2000/svg">
<path fill-rule="evenodd" clip-rule="evenodd" d="M5 0.990112H11C13.761 0.990112 16 3.21967 16 5.96902V11.9437C16 14.6931 13.761 16.9226 11 16.9226H5C2.239 16.9226 0 14.6931 0 11.9437V5.96902C0 3.21967 2.239 0.990112 5 0.990112ZM11 15.429C12.93 15.429 14.5 13.8656 14.5 11.9437V5.96902C14.5 4.04716 12.93 2.48379 11 2.48379H5C3.07 2.48379 1.5 4.04716 1.5 5.96902V11.9437C1.5 13.8656 3.07 15.429 5 15.429H11ZM4 8.95637C4 6.75669 5.791 4.97324 8 4.97324C10.209 4.97324 12 6.75669 12 8.95637C12 11.1561 10.209 12.9395 8 12.9395C5.791 12.9395 4 11.1561 4 8.95637ZM5.5 8.95637C5.5 10.3286 6.622 11.4458 8 11.4458C9.378 11.4458 10.5 10.3286 10.5 8.95637C10.5 7.58319 9.378 6.46691 8 6.46691C6.622 6.46691 5.5 7.58319 5.5 8.95637ZM12.833 4.67451C12.833 4.96764 12.5944 5.20526 12.3 5.20526C12.0057 5.20526 11.767 4.96764 11.767 4.67451C11.767 4.38138 12.0057 4.14376 12.3 4.14376C12.5944 4.14376 12.833 4.38138 12.833 4.67451Z" fill="white"/>
</svg>
