<svg width="25" height="20" viewBox="0 0 25 20" fill="none" xmlns="http://www.w3.org/2000/svg">
<path fill-rule="evenodd" clip-rule="evenodd" d="M6.88599 18.3835L10.0399 19.1619V18.1439L10.2973 17.9044H12.0995V19.102V19.9404H10.1686L7.78709 18.9823L6.88599 18.3835Z" fill="#CDBDB2"/>
<path fill-rule="evenodd" clip-rule="evenodd" d="M17.1844 18.3835L14.0949 19.1619V18.1439L13.8375 17.9044H12.0353V19.102V19.9404H13.9662L16.3477 18.9823L17.1844 18.3835Z" fill="#CDBDB2"/>
<path fill-rule="evenodd" clip-rule="evenodd" d="M10.2976 16.1676L10.0402 18.1436L10.362 17.9041H13.7089L14.0951 18.1436L13.8377 16.1676L13.3228 15.8682L10.7482 15.928L10.2976 16.1676Z" fill="#393939"/>
<path fill-rule="evenodd" clip-rule="evenodd" d="M8.55969 2.81445L10.1044 6.16777L10.8125 15.9283H13.3227L14.0951 6.16777L15.5111 2.81445H8.55969Z" fill="#F89C35"/>
<path fill-rule="evenodd" clip-rule="evenodd" d="M1.80221 10.1795L0 15.0298L4.50552 14.7903H7.40193V12.6945L7.2732 8.38306L6.62956 8.8621L1.80221 10.1795Z" fill="#F89D35"/>
<path fill-rule="evenodd" clip-rule="evenodd" d="M5.21277 10.7184L10.4907 10.8381L9.91139 13.3531L7.40117 12.7543L5.21277 10.7184Z" fill="#D87C30"/>
<path fill-rule="evenodd" clip-rule="evenodd" d="M5.21277 10.7783L7.40117 12.6945V14.6107L5.21277 10.7783Z" fill="#EA8D3A"/>
<path fill-rule="evenodd" clip-rule="evenodd" d="M7.40137 12.7546L9.97595 13.3534L10.8127 15.9283L10.2334 16.2277L7.40137 14.6708V12.7546Z" fill="#F89D35"/>
<path fill-rule="evenodd" clip-rule="evenodd" d="M7.4009 14.6707L6.88599 18.3833L10.2973 16.1677L7.4009 14.6707Z" fill="#EB8F35"/>
<path fill-rule="evenodd" clip-rule="evenodd" d="M10.4906 10.8381L10.8124 15.928L9.84692 13.3232L10.4906 10.8381Z" fill="#EA8E3A"/>
<path fill-rule="evenodd" clip-rule="evenodd" d="M4.44055 14.7305L7.40133 14.6707L6.88641 18.3833L4.44055 14.7305Z" fill="#D87C30"/>
<path fill-rule="evenodd" clip-rule="evenodd" d="M1.41602 20L6.88702 18.3832L4.44116 14.7305L0 15.0299L1.41602 20Z" fill="#EB8F35"/>
<path fill-rule="evenodd" clip-rule="evenodd" d="M10.1045 6.16772L7.3368 8.32343L5.21277 10.7187L10.4907 10.8983L10.1045 6.16772Z" fill="#E8821E"/>
<path fill-rule="evenodd" clip-rule="evenodd" d="M6.88599 18.3833L10.2973 16.1677L10.0399 18.0839V19.1618L7.72273 18.7426L6.88599 18.3833Z" fill="#DFCEC3"/>
<path fill-rule="evenodd" clip-rule="evenodd" d="M17.1844 18.3833L13.8375 16.1677L14.0949 18.0839V19.1618L16.4121 18.7426L17.1844 18.3833Z" fill="#DFCEC3"/>
<path fill-rule="evenodd" clip-rule="evenodd" d="M9.07483 11.9165L9.78284 13.2938L7.27262 12.695L9.07483 11.9165Z" fill="#393939"/>
<path fill-rule="evenodd" clip-rule="evenodd" d="M1.35083 0L10.1044 6.16771L8.62403 2.81439L1.35083 0Z" fill="#E88F35"/>
<path fill-rule="evenodd" clip-rule="evenodd" d="M1.35107 0L0.192505 3.29344L0.836151 6.88628L0.385599 7.1258L1.02925 7.66473L0.514328 8.08389L1.22234 8.6827L0.771787 9.04199L1.80162 10.2396L6.62897 8.86234C8.989 7.10584 10.1476 6.20763 10.1047 6.16771C10.0617 6.12779 7.14388 4.07189 1.35107 0Z" fill="#8E5A30"/>
<path fill-rule="evenodd" clip-rule="evenodd" d="M22.2692 10.1795L24.0714 15.0298L19.5659 14.7903H16.6695V12.6945L16.7982 8.38306L17.4419 8.8621L22.2692 10.1795Z" fill="#F89D35"/>
<path fill-rule="evenodd" clip-rule="evenodd" d="M18.8578 10.7184L13.5799 10.8381L14.1592 13.3531L16.6694 12.7543L18.8578 10.7184Z" fill="#D87C30"/>
<path fill-rule="evenodd" clip-rule="evenodd" d="M18.8578 10.7783L16.6694 12.6945V14.6107L18.8578 10.7783Z" fill="#EA8D3A"/>
<path fill-rule="evenodd" clip-rule="evenodd" d="M16.6697 12.7546L14.0951 13.3534L13.2583 15.9283L13.8376 16.2277L16.6697 14.6708V12.7546Z" fill="#F89D35"/>
<path fill-rule="evenodd" clip-rule="evenodd" d="M16.6697 14.6707L17.1846 18.3833L13.8376 16.2276L16.6697 14.6707Z" fill="#EB8F35"/>
<path fill-rule="evenodd" clip-rule="evenodd" d="M13.58 10.8381L13.2582 15.928L14.2236 13.3232L13.58 10.8381Z" fill="#EA8E3A"/>
<path fill-rule="evenodd" clip-rule="evenodd" d="M19.6301 14.7305L16.6694 14.6707L17.1843 18.3833L19.6301 14.7305Z" fill="#D87C30"/>
<path fill-rule="evenodd" clip-rule="evenodd" d="M22.6554 20L17.1844 18.3832L19.6303 14.7305L24.0714 15.0299L22.6554 20Z" fill="#EB8F35"/>
<path fill-rule="evenodd" clip-rule="evenodd" d="M13.9661 6.16772L16.7338 8.32343L18.8578 10.7187L13.5799 10.8983L13.9661 6.16772Z" fill="#E8821E"/>
<path fill-rule="evenodd" clip-rule="evenodd" d="M14.9957 11.9165L14.2877 13.2938L16.7979 12.695L14.9957 11.9165Z" fill="#393939"/>
<path fill-rule="evenodd" clip-rule="evenodd" d="M22.7197 0L13.9661 6.16771L15.4465 2.81439L22.7197 0Z" fill="#E88F35"/>
<path fill-rule="evenodd" clip-rule="evenodd" d="M22.7185 0L23.8771 3.29344L23.2334 6.88628L23.684 7.1258L23.0403 7.66473L23.5553 8.08389L22.8472 8.6827L23.2978 9.04199L22.268 10.2396L17.4406 8.86234C15.0806 7.10584 13.922 6.20763 13.9649 6.16771C14.0078 6.12779 16.9257 4.07189 22.7185 0Z" fill="#8E5A30"/>
</svg>
