<svg width="16" height="17" viewBox="0 0 16 17" fill="none" xmlns="http://www.w3.org/2000/svg">
<path d="M16 3.85038C15.405 4.11028 14.771 4.28255 14.11 4.36619C14.79 3.96191 15.309 3.3266 15.553 2.56084C14.919 2.93725 14.219 3.20312 13.473 3.35149C12.871 2.7132 12.013 2.31787 11.077 2.31787C9.261 2.31787 7.799 3.78565 7.799 5.58503C7.799 5.84394 7.821 6.09288 7.875 6.32988C5.148 6.19744 2.735 4.89595 1.114 2.91335C0.831 3.40228 0.665 3.96191 0.665 4.56436C0.665 5.69556 1.25 6.69832 2.122 7.27886C1.595 7.2689 1.078 7.11655 0.64 6.87656C0.64 6.88652 0.64 6.89946 0.64 6.91241C0.64 8.49969 1.777 9.8181 3.268 10.1218C3.001 10.1945 2.71 10.2294 2.408 10.2294C2.198 10.2294 1.986 10.2174 1.787 10.1736C2.212 11.4671 3.418 12.4181 4.852 12.449C3.736 13.3183 2.319 13.8421 0.785 13.8421C0.516 13.8421 0.258 13.8301 0 13.7972C1.453 14.7303 3.175 15.263 5.032 15.263C11.068 15.263 14.368 10.2841 14.368 5.96841C14.368 5.82402 14.363 5.68461 14.356 5.5462C15.007 5.08615 15.554 4.51158 16 3.85038Z" fill="white"/>
</svg>
