<svg width="18" height="19" viewBox="0 0 18 19" fill="none" xmlns="http://www.w3.org/2000/svg">
<path d="M15.5322 3.71939C15.5322 3.71939 16.9892 3.15366 16.8678 4.52757C16.8273 5.09331 16.4631 7.07336 16.1798 9.21506L15.2085 15.5593C15.2085 15.5593 15.1275 16.4887 14.399 16.6504C13.6705 16.812 12.5778 16.0847 12.3754 15.923C12.2135 15.8018 9.34005 13.9834 8.32823 13.0944C8.04491 12.8519 7.72114 12.367 8.36869 11.8012L12.6183 7.76034C13.1039 7.27542 13.5896 6.14396 11.566 7.51788L5.89991 11.3568C5.89991 11.3568 5.25236 11.7608 4.03823 11.3972L1.40753 10.589C1.40753 10.589 0.436204 9.98285 2.09556 9.37668C6.14276 7.47743 11.1208 5.53779 15.5322 3.71939Z" fill="white"/>
</svg>
