<svg width="116" height="39" viewBox="0 0 116 39" fill="none" xmlns="http://www.w3.org/2000/svg">
<path d="M57.3612 15.2407C58.3251 15.2407 59.2601 15.2979 60.1662 15.4124C61.0723 15.527 61.9205 15.694 62.7109 15.9134C63.5013 16.1234 64.2242 16.381 64.8797 16.6864C65.5351 16.9822 66.0942 17.321 66.5569 17.7027C67.0195 18.0844 67.381 18.5043 67.6413 18.9623C67.9015 19.4108 68.0316 19.8879 68.0316 20.3937V32.6751C68.0316 33.1808 67.9015 33.6627 67.6413 34.1208C67.381 34.5693 67.0195 34.9844 66.5569 35.3661C66.0942 35.7478 65.5351 36.0913 64.8797 36.3967C64.2242 36.6925 63.5013 36.9502 62.7109 37.1696C61.9205 37.3796 61.0723 37.5418 60.1662 37.6563C59.2601 37.7708 58.3251 37.8281 57.3612 37.8281C56.3973 37.8281 55.4623 37.7708 54.5563 37.6563C53.6598 37.5418 52.8164 37.3796 52.026 37.1696C51.2453 36.9502 50.5271 36.6925 49.8717 36.3967C49.2162 36.0913 48.6524 35.7478 48.18 35.3661C47.7174 34.9844 47.3559 34.5693 47.0956 34.1208C46.845 33.6627 46.7197 33.1808 46.7197 32.6751V20.3937C46.7197 19.8879 46.845 19.4108 47.0956 18.9623C47.3559 18.5043 47.7174 18.0844 48.18 17.7027C48.6524 17.321 49.2162 16.9822 49.8717 16.6864C50.5271 16.381 51.2453 16.1234 52.026 15.9134C52.8164 15.694 53.6598 15.527 54.5563 15.4124C55.4623 15.2979 56.3973 15.2407 57.3612 15.2407ZM64.2435 21.4816C64.2435 21.0712 64.0845 20.6847 63.7664 20.3221C63.4483 19.95 62.9904 19.6255 62.3928 19.3488C61.8048 19.0625 61.0867 18.8382 60.2385 18.676C59.3902 18.5043 58.4312 18.4184 57.3612 18.4184C56.3298 18.4184 55.3949 18.4995 54.5563 18.6617C53.7177 18.8144 52.9947 19.0291 52.3875 19.3058C51.7899 19.5826 51.3272 19.907 50.9995 20.2792C50.6717 20.6513 50.5079 21.0521 50.5079 21.4816V31.5872C50.5079 32.0071 50.6717 32.4031 50.9995 32.7753C51.3272 33.1474 51.7899 33.4719 52.3875 33.7486C52.9947 34.0253 53.7177 34.2448 54.5563 34.407C55.3949 34.5693 56.3298 34.6504 57.3612 34.6504C58.4312 34.6504 59.3902 34.5693 60.2385 34.407C61.0867 34.2353 61.8048 34.0063 62.3928 33.72C62.9904 33.4337 63.4483 33.1092 63.7664 32.7466C64.0845 32.3745 64.2435 31.988 64.2435 31.5872V21.4816Z" fill="white"/>
<path d="M81.5359 23.3424L85.8446 15.756C86.6735 15.7942 87.4543 15.8514 88.1869 15.9277C88.9194 15.9945 89.5701 16.0661 90.1388 16.1425C90.7942 16.2283 91.4063 16.319 91.975 16.4144V20.0502C91.7822 19.9834 91.522 19.9118 91.1943 19.8355C90.8762 19.7591 90.5195 19.6828 90.1243 19.6064C89.7291 19.5205 89.3146 19.4394 88.8809 19.3631C88.4471 19.2868 88.023 19.2104 87.6085 19.1341L83.3577 26.6059L87.6085 34.0778C88.023 34.011 88.4471 33.9395 88.8809 33.8631C89.3146 33.7772 89.7291 33.6913 90.1243 33.6055C90.5195 33.5196 90.8762 33.4385 91.1943 33.3621C91.522 33.2858 91.7822 33.219 91.975 33.1617V36.7975C91.4063 36.8929 90.7942 36.9836 90.1388 37.0694C89.5701 37.1458 88.9194 37.2221 88.1869 37.2985C87.4543 37.3653 86.6735 37.4177 85.8446 37.4559L81.5359 29.8695L77.1984 37.4559C76.3694 37.4177 75.5838 37.3653 74.8416 37.2985C74.1091 37.2221 73.4632 37.1458 72.9042 37.0694C72.2487 36.9836 71.6463 36.8929 71.0969 36.7975V33.1617C71.2704 33.219 71.5162 33.2858 71.8342 33.3621C72.1523 33.4385 72.509 33.5196 72.9042 33.6055C73.2994 33.6913 73.7139 33.7772 74.1476 33.8631C74.591 33.9395 75.0199 34.011 75.4344 34.0778L79.6563 26.6059L75.4344 19.1341C75.0199 19.2104 74.591 19.2868 74.1476 19.3631C73.7139 19.4394 73.2994 19.5205 72.9042 19.6064C72.509 19.6828 72.1523 19.7591 71.8342 19.8355C71.5162 19.9118 71.2704 19.9834 71.0969 20.0502V16.4144C71.6463 16.319 72.2487 16.2283 72.9042 16.1425C73.4632 16.0661 74.1091 15.9945 74.8416 15.9277C75.5838 15.8514 76.3694 15.7942 77.1984 15.756L81.5359 23.3424Z" fill="white"/>
<path d="M105.624 15.0403C106.222 15.0403 106.829 15.1023 107.446 15.2264C108.063 15.3409 108.612 15.4983 109.094 15.6987C109.942 17.1683 110.713 18.6665 111.407 20.1933C112.111 21.7106 112.738 23.2756 113.287 24.8883C113.663 24.936 114.044 24.9885 114.429 25.0457C114.815 25.0934 115.205 25.1459 115.6 25.2032V28.8675L114.357 28.524C114.704 29.9459 114.998 31.3963 115.239 32.8755C115.48 34.3546 115.658 35.8623 115.774 37.3987H112.333C112.188 35.7573 111.947 34.1351 111.61 32.5319C111.272 30.9288 110.887 29.3924 110.453 27.9228C109.518 27.8465 108.626 27.7892 107.778 27.7511C106.94 27.7129 106.222 27.6938 105.624 27.6938C104.824 27.6938 104.029 27.7081 103.238 27.7367C102.448 27.7654 101.653 27.8179 100.853 27.8942C100.419 29.3638 100.028 30.9001 99.6814 32.5033C99.3441 34.1065 99.1079 35.7382 98.973 37.3987H95.5318C95.6379 35.8623 95.8065 34.3593 96.0379 32.8898C96.2789 31.4202 96.5728 29.9745 96.9198 28.5526L95.7921 28.8675V25.2032L98.0187 24.8883C98.5585 23.2756 99.1754 21.7106 99.8694 20.1933C100.573 18.6665 101.354 17.1683 102.212 15.6987C102.694 15.4983 103.238 15.3409 103.845 15.2264C104.453 15.1023 105.046 15.0403 105.624 15.0403ZM105.624 24.4589C106.202 24.4589 106.8 24.4684 107.417 24.4875C108.034 24.497 108.67 24.5257 109.325 24.5734C108.834 23.2469 108.347 22.0971 107.865 21.1237C107.393 20.1408 106.983 19.3822 106.636 18.8478C106.462 18.7715 106.299 18.719 106.144 18.6903C105.99 18.6617 105.817 18.6474 105.624 18.6474C105.315 18.6474 104.997 18.7142 104.67 18.8478C104.323 19.3822 103.908 20.1408 103.426 21.1237C102.944 22.0971 102.462 23.2469 101.98 24.5734C102.617 24.5257 103.238 24.497 103.845 24.4875C104.462 24.4684 105.055 24.4589 105.624 24.4589Z" fill="white"/>
<path d="M0 0.0983887H25.3556C29.7317 0.0983887 33.2792 3.61044 33.2792 7.94276V15.3949C37.6553 15.3949 41.2029 18.907 41.2029 23.2393V30.6915C41.2029 35.0238 37.6553 38.5358 33.2792 38.5358H18.6205L14.8568 30.6915H30.1098V23.2393H11.2912L7.52745 15.3949H22.7804V7.94276H3.76372L0 0.0983887Z" fill="white"/>
</svg>
